<svg id="visual" viewBox="0 0 960 540" width="960" height="540" xmlns="http://www.w3.org/2000/svg" xmlns:xlink="http://www.w3.org/1999/xlink" version="1.1"><rect x="0" y="0" width="960" height="540" fill="#001220"></rect><path d="M0 392L22.8 398.2C45.7 404.3 91.3 416.7 137 415.7C182.7 414.7 228.3 400.3 274 391C319.7 381.7 365.3 377.3 411.2 376.7C457 376 503 379 548.8 387.3C594.7 395.7 640.3 409.3 686 416C731.7 422.7 777.3 422.3 823 413.8C868.7 405.3 914.3 388.7 937.2 380.3L960 372L960 541L937.2 541C914.3 541 868.7 541 823 541C777.3 541 731.7 541 686 541C640.3 541 594.7 541 548.8 541C503 541 457 541 411.2 541C365.3 541 319.7 541 274 541C228.3 541 182.7 541 137 541C91.3 541 45.7 541 22.8 541L0 541Z" fill="#fa7268"></path><path d="M0 426L22.8 431.7C45.7 437.3 91.3 448.7 137 455.5C182.7 462.3 228.3 464.7 274 461.3C319.7 458 365.3 449 411.2 443C457 437 503 434 548.8 438.8C594.7 443.7 640.3 456.3 686 459.5C731.7 462.7 777.3 456.3 823 454.5C868.7 452.7 914.3 455.3 937.2 456.7L960 458L960 541L937.2 541C914.3 541 868.7 541 823 541C777.3 541 731.7 541 686 541C640.3 541 594.7 541 548.8 541C503 541 457 541 411.2 541C365.3 541 319.7 541 274 541C228.3 541 182.7 541 137 541C91.3 541 45.7 541 22.8 541L0 541Z" fill="#e34c67"></path><path d="M0 494L22.8 493.3C45.7 492.7 91.3 491.3 137 492.8C182.7 494.3 228.3 498.7 274 500.5C319.7 502.3 365.3 501.7 411.2 495.8C457 490 503 479 548.8 473.7C594.7 468.3 640.3 468.7 686 471.7C731.7 474.7 777.3 480.3 823 480.8C868.7 481.3 914.3 476.7 937.2 474.3L960 472L960 541L937.2 541C914.3 541 868.7 541 823 541C777.3 541 731.7 541 686 541C640.3 541 594.7 541 548.8 541C503 541 457 541 411.2 541C365.3 541 319.7 541 274 541C228.3 541 182.7 541 137 541C91.3 541 45.7 541 22.8 541L0 541Z" fill="#c62368"></path></svg>